<svg xmlns="http://www.w3.org/2000/svg" width="1280" height="640" viewBox="0 0 1280 640" role="img" aria-label="Flux — Adaptive Runtime Engine">
<title>Flux — Adaptive Runtime Engine</title><desc>Generated by scripts/render-banner.py. Edit that script, not this file.</desc>
<defs><linearGradient id="surface" x1="0" y1="0" x2="0" y2="1"><stop offset="0" stop-color="#1c1014"/><stop offset="1" stop-color="#281c20"/></linearGradient><linearGradient id="flow0" gradientUnits="userSpaceOnUse" x1="563.20" y1="0" x2="1318.40" y2="0"><stop offset="0" stop-color="#ffb0cc" stop-opacity="0"/><stop offset="0.340" stop-color="#ffb0cc" stop-opacity="0.376"/><stop offset="1" stop-color="#ffb0cc" stop-opacity="0.376"/></linearGradient><linearGradient id="flow1" gradientUnits="userSpaceOnUse" x1="563.20" y1="0" x2="1318.40" y2="0"><stop offset="0" stop-color="#e2bdc8" stop-opacity="0"/><stop offset="0.340" stop-color="#e2bdc8" stop-opacity="0.290"/><stop offset="1" stop-color="#e2bdc8" stop-opacity="0.290"/></linearGradient><linearGradient id="flow2" gradientUnits="userSpaceOnUse" x1="563.20" y1="0" x2="1318.40" y2="0"><stop offset="0" stop-color="#f0bc95" stop-opacity="0"/><stop offset="0.340" stop-color="#f0bc95" stop-opacity="0.259"/><stop offset="1" stop-color="#f0bc95" stop-opacity="0.259"/></linearGradient><linearGradient id="flow3" gradientUnits="userSpaceOnUse" x1="563.20" y1="0" x2="1318.40" y2="0"><stop offset="0" stop-color="#ffb0cc" stop-opacity="0"/><stop offset="0.340" stop-color="#ffb0cc" stop-opacity="0.227"/><stop offset="1" stop-color="#ffb0cc" stop-opacity="0.227"/></linearGradient><linearGradient id="flow4" gradientUnits="userSpaceOnUse" x1="563.20" y1="0" x2="1318.40" y2="0"><stop offset="0" stop-color="#e2bdc8" stop-opacity="0"/><stop offset="0.340" stop-color="#e2bdc8" stop-opacity="0.157"/><stop offset="1" stop-color="#e2bdc8" stop-opacity="0.157"/></linearGradient></defs>
<rect width="1280" height="640" fill="url(#surface)"/>
<g fill="none" stroke-linecap="round">
<path d="M 563.20 140.80 L 566.63 140.80 L 570.07 140.80 L 573.50 140.80 L 576.93 140.80 L 580.36 140.81 L 583.80 140.82 L 587.23 140.83 L 590.66 140.84 L 594.09 140.86 L 597.53 140.88 L 600.96 140.90 L 604.39 140.93 L 607.83 140.96 L 611.26 141.00 L 614.69 141.05 L 618.12 141.10 L 621.56 141.16 L 624.99 141.22 L 628.42 141.29 L 631.85 141.37 L 635.29 141.46 L 638.72 141.55 L 642.15 141.65 L 645.59 141.76 L 649.02 141.88 L 652.45 142.00 L 655.88 142.13 L 659.32 142.28 L 662.75 142.43 L 666.18 142.58 L 669.61 142.75 L 673.05 142.92 L 676.48 143.11 L 679.91 143.30 L 683.35 143.50 L 686.78 143.71 L 690.21 143.92 L 693.64 144.15 L 697.08 144.38 L 700.51 144.62 L 703.94 144.86 L 707.37 145.12 L 710.81 145.38 L 714.24 145.64 L 717.67 145.92 L 721.11 146.20 L 724.54 146.48 L 727.97 146.77 L 731.40 147.07 L 734.84 147.37 L 738.27 147.67 L 741.70 147.98 L 745.13 148.30 L 748.57 148.61 L 752.00 148.93 L 755.43 149.25 L 758.87 149.57 L 762.30 149.90 L 765.73 150.22 L 769.16 150.54 L 772.60 150.87 L 776.03 151.19 L 779.46 151.51 L 782.89 151.83 L 786.33 152.15 L 789.76 152.46 L 793.19 152.77 L 796.63 153.08 L 800.06 153.38 L 803.49 153.68 L 806.92 153.97 L 810.36 154.25 L 813.79 154.53 L 817.22 154.79 L 820.65 155.05 L 824.09 155.30 L 827.52 155.54 L 830.95 155.78 L 834.39 156.00 L 837.82 156.20 L 841.25 156.40 L 844.68 156.58 L 848.12 156.76 L 851.55 156.91 L 854.98 157.06 L 858.41 157.19 L 861.85 157.30 L 865.28 157.40 L 868.71 157.48 L 872.15 157.54 L 875.58 157.59 L 879.01 157.62 L 882.44 157.63 L 885.88 157.62 L 889.31 157.60 L 892.74 157.55 L 896.17 157.49 L 899.61 157.40 L 903.04 157.30 L 906.47 157.17 L 909.91 157.03 L 913.34 156.86 L 916.77 156.67 L 920.20 156.46 L 923.64 156.22 L 927.07 155.97 L 930.50 155.69 L 933.93 155.39 L 937.37 155.06 L 940.80 154.72 L 944.23 154.35 L 947.67 153.96 L 951.10 153.55 L 954.53 153.11 L 957.96 152.65 L 961.40 152.17 L 964.83 151.66 L 968.26 151.14 L 971.69 150.59 L 975.13 150.02 L 978.56 149.42 L 981.99 148.81 L 985.43 148.18 L 988.86 147.52 L 992.29 146.84 L 995.72 146.14 L 999.16 145.43 L 1002.59 144.69 L 1006.02 143.93 L 1009.45 143.16 L 1012.89 142.37 L 1016.32 141.56 L 1019.75 140.73 L 1023.19 139.88 L 1026.62 139.02 L 1030.05 138.15 L 1033.48 137.26 L 1036.92 136.35 L 1040.35 135.43 L 1043.78 134.50 L 1047.21 133.56 L 1050.65 132.61 L 1054.08 131.64 L 1057.51 130.67 L 1060.95 129.68 L 1064.38 128.69 L 1067.81 127.69 L 1071.24 126.69 L 1074.68 125.67 L 1078.11 124.66 L 1081.54 123.64 L 1084.97 122.61 L 1088.41 121.59 L 1091.84 120.56 L 1095.27 119.54 L 1098.71 118.51 L 1102.14 117.49 L 1105.57 116.46 L 1109.00 115.44 L 1112.44 114.43 L 1115.87 113.42 L 1119.30 112.42 L 1122.73 111.43 L 1126.17 110.44 L 1129.60 109.46 L 1133.03 108.50 L 1136.47 107.54 L 1139.90 106.60 L 1143.33 105.67 L 1146.76 104.75 L 1150.20 103.85 L 1153.63 102.97 L 1157.06 102.10 L 1160.49 101.25 L 1163.93 100.42 L 1167.36 99.61 L 1170.79 98.82 L 1174.23 98.05 L 1177.66 97.31 L 1181.09 96.58 L 1184.52 95.88 L 1187.96 95.21 L 1191.39 94.56 L 1194.82 93.94 L 1198.25 93.34 L 1201.69 92.77 L 1205.12 92.23 L 1208.55 91.72 L 1211.99 91.24 L 1215.42 90.79 L 1218.85 90.37 L 1222.28 89.98 L 1225.72 89.63 L 1229.15 89.30 L 1232.58 89.01 L 1236.01 88.75 L 1239.45 88.53 L 1242.88 88.34 L 1246.31 88.18 L 1249.75 88.06 L 1253.18 87.98 L 1256.61 87.93 L 1260.04 87.91 L 1263.48 87.93 L 1266.91 87.99 L 1270.34 88.08 L 1273.77 88.21 L 1277.21 88.37 L 1280.64 88.57 L 1284.07 88.81 L 1287.51 89.08 L 1290.94 89.39 L 1294.37 89.73 L 1297.80 90.11 L 1301.24 90.52 L 1304.67 90.97 L 1308.10 91.45 L 1311.53 91.96 L 1314.97 92.51 L 1318.40 93.09" stroke="url(#flow0)" stroke-width="3.5"/>
<path d="M 563.20 243.20 L 566.63 243.20 L 570.07 243.22 L 573.50 243.23 L 576.93 243.26 L 580.36 243.30 L 583.80 243.34 L 587.23 243.39 L 590.66 243.45 L 594.09 243.52 L 597.53 243.60 L 600.96 243.68 L 604.39 243.77 L 607.83 243.88 L 611.26 243.98 L 614.69 244.10 L 618.12 244.22 L 621.56 244.35 L 624.99 244.49 L 628.42 244.63 L 631.85 244.78 L 635.29 244.94 L 638.72 245.10 L 642.15 245.27 L 645.59 245.44 L 649.02 245.62 L 652.45 245.80 L 655.88 245.98 L 659.32 246.17 L 662.75 246.36 L 666.18 246.55 L 669.61 246.74 L 673.05 246.94 L 676.48 247.14 L 679.91 247.33 L 683.35 247.53 L 686.78 247.72 L 690.21 247.91 L 693.64 248.10 L 697.08 248.29 L 700.51 248.47 L 703.94 248.65 L 707.37 248.82 L 710.81 248.99 L 714.24 249.16 L 717.67 249.31 L 721.11 249.46 L 724.54 249.60 L 727.97 249.74 L 731.40 249.86 L 734.84 249.97 L 738.27 250.08 L 741.70 250.17 L 745.13 250.25 L 748.57 250.32 L 752.00 250.38 L 755.43 250.42 L 758.87 250.45 L 762.30 250.46 L 765.73 250.46 L 769.16 250.45 L 772.60 250.42 L 776.03 250.37 L 779.46 250.30 L 782.89 250.22 L 786.33 250.12 L 789.76 250.00 L 793.19 249.87 L 796.63 249.71 L 800.06 249.54 L 803.49 249.34 L 806.92 249.13 L 810.36 248.89 L 813.79 248.64 L 817.22 248.36 L 820.65 248.07 L 824.09 247.75 L 827.52 247.41 L 830.95 247.05 L 834.39 246.67 L 837.82 246.27 L 841.25 245.84 L 844.68 245.40 L 848.12 244.93 L 851.55 244.44 L 854.98 243.93 L 858.41 243.40 L 861.85 242.85 L 865.28 242.28 L 868.71 241.69 L 872.15 241.08 L 875.58 240.44 L 879.01 239.79 L 882.44 239.12 L 885.88 238.43 L 889.31 237.72 L 892.74 236.99 L 896.17 236.24 L 899.61 235.48 L 903.04 234.70 L 906.47 233.90 L 909.91 233.09 L 913.34 232.26 L 916.77 231.42 L 920.20 230.57 L 923.64 229.70 L 927.07 228.82 L 930.50 227.93 L 933.93 227.02 L 937.37 226.11 L 940.80 225.19 L 944.23 224.25 L 947.67 223.32 L 951.10 222.37 L 954.53 221.42 L 957.96 220.46 L 961.40 219.50 L 964.83 218.54 L 968.26 217.57 L 971.69 216.60 L 975.13 215.63 L 978.56 214.67 L 981.99 213.70 L 985.43 212.74 L 988.86 211.78 L 992.29 210.83 L 995.72 209.88 L 999.16 208.94 L 1002.59 208.00 L 1006.02 207.08 L 1009.45 206.16 L 1012.89 205.26 L 1016.32 204.37 L 1019.75 203.49 L 1023.19 202.63 L 1026.62 201.78 L 1030.05 200.95 L 1033.48 200.13 L 1036.92 199.34 L 1040.35 198.56 L 1043.78 197.81 L 1047.21 197.07 L 1050.65 196.36 L 1054.08 195.67 L 1057.51 195.01 L 1060.95 194.37 L 1064.38 193.76 L 1067.81 193.17 L 1071.24 192.61 L 1074.68 192.09 L 1078.11 191.59 L 1081.54 191.12 L 1084.97 190.68 L 1088.41 190.28 L 1091.84 189.91 L 1095.27 189.57 L 1098.71 189.27 L 1102.14 189.00 L 1105.57 188.77 L 1109.00 188.57 L 1112.44 188.41 L 1115.87 188.29 L 1119.30 188.20 L 1122.73 188.16 L 1126.17 188.15 L 1129.60 188.18 L 1133.03 188.25 L 1136.47 188.36 L 1139.90 188.51 L 1143.33 188.71 L 1146.76 188.94 L 1150.20 189.21 L 1153.63 189.52 L 1157.06 189.88 L 1160.49 190.27 L 1163.93 190.71 L 1167.36 191.18 L 1170.79 191.70 L 1174.23 192.26 L 1177.66 192.85 L 1181.09 193.49 L 1184.52 194.17 L 1187.96 194.89 L 1191.39 195.64 L 1194.82 196.44 L 1198.25 197.27 L 1201.69 198.14 L 1205.12 199.05 L 1208.55 200.00 L 1211.99 200.98 L 1215.42 202.00 L 1218.85 203.05 L 1222.28 204.14 L 1225.72 205.26 L 1229.15 206.41 L 1232.58 207.59 L 1236.01 208.81 L 1239.45 210.05 L 1242.88 211.33 L 1246.31 212.63 L 1249.75 213.96 L 1253.18 215.31 L 1256.61 216.69 L 1260.04 218.10 L 1263.48 219.52 L 1266.91 220.97 L 1270.34 222.44 L 1273.77 223.92 L 1277.21 225.42 L 1280.64 226.94 L 1284.07 228.48 L 1287.51 230.03 L 1290.94 231.59 L 1294.37 233.16 L 1297.80 234.74 L 1301.24 236.33 L 1304.67 237.92 L 1308.10 239.53 L 1311.53 241.13 L 1314.97 242.74 L 1318.40 244.34" stroke="url(#flow1)" stroke-width="3.0"/>
<path d="M 563.20 345.60 L 566.63 345.60 L 570.07 345.61 L 573.50 345.63 L 576.93 345.64 L 580.36 345.67 L 583.80 345.69 L 587.23 345.72 L 590.66 345.76 L 594.09 345.80 L 597.53 345.83 L 600.96 345.87 L 604.39 345.92 L 607.83 345.96 L 611.26 346.00 L 614.69 346.04 L 618.12 346.08 L 621.56 346.12 L 624.99 346.16 L 628.42 346.20 L 631.85 346.23 L 635.29 346.26 L 638.72 346.29 L 642.15 346.31 L 645.59 346.33 L 649.02 346.34 L 652.45 346.34 L 655.88 346.34 L 659.32 346.34 L 662.75 346.32 L 666.18 346.30 L 669.61 346.27 L 673.05 346.23 L 676.48 346.19 L 679.91 346.13 L 683.35 346.06 L 686.78 345.99 L 690.21 345.90 L 693.64 345.81 L 697.08 345.70 L 700.51 345.58 L 703.94 345.45 L 707.37 345.31 L 710.81 345.15 L 714.24 344.99 L 717.67 344.81 L 721.11 344.62 L 724.54 344.41 L 727.97 344.20 L 731.40 343.97 L 734.84 343.72 L 738.27 343.47 L 741.70 343.20 L 745.13 342.92 L 748.57 342.62 L 752.00 342.31 L 755.43 341.99 L 758.87 341.66 L 762.30 341.31 L 765.73 340.95 L 769.16 340.57 L 772.60 340.19 L 776.03 339.79 L 779.46 339.38 L 782.89 338.96 L 786.33 338.53 L 789.76 338.09 L 793.19 337.63 L 796.63 337.17 L 800.06 336.69 L 803.49 336.21 L 806.92 335.72 L 810.36 335.21 L 813.79 334.70 L 817.22 334.18 L 820.65 333.66 L 824.09 333.13 L 827.52 332.59 L 830.95 332.04 L 834.39 331.49 L 837.82 330.94 L 841.25 330.38 L 844.68 329.82 L 848.12 329.26 L 851.55 328.69 L 854.98 328.12 L 858.41 327.56 L 861.85 326.99 L 865.28 326.42 L 868.71 325.86 L 872.15 325.30 L 875.58 324.74 L 879.01 324.18 L 882.44 323.63 L 885.88 323.08 L 889.31 322.54 L 892.74 322.01 L 896.17 321.49 L 899.61 320.97 L 903.04 320.46 L 906.47 319.97 L 909.91 319.48 L 913.34 319.00 L 916.77 318.54 L 920.20 318.09 L 923.64 317.66 L 927.07 317.24 L 930.50 316.83 L 933.93 316.44 L 937.37 316.07 L 940.80 315.72 L 944.23 315.38 L 947.67 315.06 L 951.10 314.76 L 954.53 314.49 L 957.96 314.23 L 961.40 314.00 L 964.83 313.79 L 968.26 313.60 L 971.69 313.43 L 975.13 313.29 L 978.56 313.18 L 981.99 313.09 L 985.43 313.02 L 988.86 312.98 L 992.29 312.97 L 995.72 312.99 L 999.16 313.03 L 1002.59 313.10 L 1006.02 313.20 L 1009.45 313.33 L 1012.89 313.49 L 1016.32 313.68 L 1019.75 313.90 L 1023.19 314.14 L 1026.62 314.42 L 1030.05 314.73 L 1033.48 315.07 L 1036.92 315.43 L 1040.35 315.83 L 1043.78 316.26 L 1047.21 316.72 L 1050.65 317.21 L 1054.08 317.73 L 1057.51 318.28 L 1060.95 318.87 L 1064.38 319.48 L 1067.81 320.12 L 1071.24 320.79 L 1074.68 321.49 L 1078.11 322.22 L 1081.54 322.98 L 1084.97 323.77 L 1088.41 324.58 L 1091.84 325.43 L 1095.27 326.30 L 1098.71 327.20 L 1102.14 328.12 L 1105.57 329.07 L 1109.00 330.04 L 1112.44 331.04 L 1115.87 332.06 L 1119.30 333.11 L 1122.73 334.18 L 1126.17 335.27 L 1129.60 336.38 L 1133.03 337.51 L 1136.47 338.66 L 1139.90 339.83 L 1143.33 341.01 L 1146.76 342.21 L 1150.20 343.43 L 1153.63 344.67 L 1157.06 345.91 L 1160.49 347.17 L 1163.93 348.44 L 1167.36 349.73 L 1170.79 351.02 L 1174.23 352.32 L 1177.66 353.63 L 1181.09 354.94 L 1184.52 356.26 L 1187.96 357.58 L 1191.39 358.91 L 1194.82 360.24 L 1198.25 361.57 L 1201.69 362.90 L 1205.12 364.22 L 1208.55 365.55 L 1211.99 366.87 L 1215.42 368.18 L 1218.85 369.49 L 1222.28 370.79 L 1225.72 372.09 L 1229.15 373.37 L 1232.58 374.64 L 1236.01 375.90 L 1239.45 377.15 L 1242.88 378.38 L 1246.31 379.59 L 1249.75 380.79 L 1253.18 381.97 L 1256.61 383.13 L 1260.04 384.27 L 1263.48 385.39 L 1266.91 386.48 L 1270.34 387.55 L 1273.77 388.60 L 1277.21 389.62 L 1280.64 390.62 L 1284.07 391.58 L 1287.51 392.52 L 1290.94 393.43 L 1294.37 394.31 L 1297.80 395.15 L 1301.24 395.97 L 1304.67 396.75 L 1308.10 397.49 L 1311.53 398.21 L 1314.97 398.88 L 1318.40 399.52" stroke="url(#flow2)" stroke-width="3.0"/>
<path d="M 563.20 448.00 L 566.63 448.00 L 570.07 448.00 L 573.50 448.00 L 576.93 448.00 L 580.36 448.00 L 583.80 447.99 L 587.23 447.98 L 590.66 447.97 L 594.09 447.96 L 597.53 447.94 L 600.96 447.91 L 604.39 447.88 L 607.83 447.84 L 611.26 447.80 L 614.69 447.75 L 618.12 447.69 L 621.56 447.63 L 624.99 447.55 L 628.42 447.47 L 631.85 447.38 L 635.29 447.27 L 638.72 447.16 L 642.15 447.04 L 645.59 446.91 L 649.02 446.77 L 652.45 446.61 L 655.88 446.45 L 659.32 446.27 L 662.75 446.08 L 666.18 445.89 L 669.61 445.68 L 673.05 445.45 L 676.48 445.22 L 679.91 444.98 L 683.35 444.72 L 686.78 444.45 L 690.21 444.17 L 693.64 443.88 L 697.08 443.58 L 700.51 443.27 L 703.94 442.95 L 707.37 442.61 L 710.81 442.27 L 714.24 441.92 L 717.67 441.55 L 721.11 441.18 L 724.54 440.80 L 727.97 440.41 L 731.40 440.01 L 734.84 439.61 L 738.27 439.19 L 741.70 438.77 L 745.13 438.35 L 748.57 437.92 L 752.00 437.48 L 755.43 437.04 L 758.87 436.60 L 762.30 436.15 L 765.73 435.70 L 769.16 435.25 L 772.60 434.79 L 776.03 434.34 L 779.46 433.88 L 782.89 433.43 L 786.33 432.98 L 789.76 432.53 L 793.19 432.08 L 796.63 431.64 L 800.06 431.20 L 803.49 430.77 L 806.92 430.35 L 810.36 429.93 L 813.79 429.52 L 817.22 429.11 L 820.65 428.72 L 824.09 428.34 L 827.52 427.97 L 830.95 427.61 L 834.39 427.26 L 837.82 426.92 L 841.25 426.61 L 844.68 426.30 L 848.12 426.01 L 851.55 425.74 L 854.98 425.49 L 858.41 425.25 L 861.85 425.03 L 865.28 424.83 L 868.71 424.66 L 872.15 424.50 L 875.58 424.37 L 879.01 424.25 L 882.44 424.16 L 885.88 424.10 L 889.31 424.06 L 892.74 424.04 L 896.17 424.05 L 899.61 424.08 L 903.04 424.15 L 906.47 424.24 L 909.91 424.35 L 913.34 424.50 L 916.77 424.67 L 920.20 424.87 L 923.64 425.10 L 927.07 425.36 L 930.50 425.65 L 933.93 425.97 L 937.37 426.32 L 940.80 426.70 L 944.23 427.11 L 947.67 427.55 L 951.10 428.02 L 954.53 428.53 L 957.96 429.06 L 961.40 429.63 L 964.83 430.22 L 968.26 430.85 L 971.69 431.51 L 975.13 432.19 L 978.56 432.91 L 981.99 433.66 L 985.43 434.44 L 988.86 435.25 L 992.29 436.09 L 995.72 436.95 L 999.16 437.85 L 1002.59 438.77 L 1006.02 439.72 L 1009.45 440.70 L 1012.89 441.70 L 1016.32 442.73 L 1019.75 443.79 L 1023.19 444.87 L 1026.62 445.97 L 1030.05 447.10 L 1033.48 448.24 L 1036.92 449.42 L 1040.35 450.61 L 1043.78 451.82 L 1047.21 453.05 L 1050.65 454.30 L 1054.08 455.57 L 1057.51 456.85 L 1060.95 458.15 L 1064.38 459.46 L 1067.81 460.78 L 1071.24 462.12 L 1074.68 463.47 L 1078.11 464.83 L 1081.54 466.19 L 1084.97 467.57 L 1088.41 468.95 L 1091.84 470.34 L 1095.27 471.73 L 1098.71 473.12 L 1102.14 474.51 L 1105.57 475.91 L 1109.00 477.30 L 1112.44 478.69 L 1115.87 480.08 L 1119.30 481.47 L 1122.73 482.84 L 1126.17 484.21 L 1129.60 485.57 L 1133.03 486.92 L 1136.47 488.26 L 1139.90 489.59 L 1143.33 490.90 L 1146.76 492.20 L 1150.20 493.48 L 1153.63 494.74 L 1157.06 495.99 L 1160.49 497.21 L 1163.93 498.41 L 1167.36 499.59 L 1170.79 500.75 L 1174.23 501.87 L 1177.66 502.98 L 1181.09 504.05 L 1184.52 505.10 L 1187.96 506.11 L 1191.39 507.10 L 1194.82 508.05 L 1198.25 508.97 L 1201.69 509.85 L 1205.12 510.70 L 1208.55 511.51 L 1211.99 512.29 L 1215.42 513.03 L 1218.85 513.72 L 1222.28 514.38 L 1225.72 515.00 L 1229.15 515.57 L 1232.58 516.11 L 1236.01 516.60 L 1239.45 517.04 L 1242.88 517.45 L 1246.31 517.80 L 1249.75 518.12 L 1253.18 518.38 L 1256.61 518.60 L 1260.04 518.78 L 1263.48 518.90 L 1266.91 518.98 L 1270.34 519.01 L 1273.77 519.00 L 1277.21 518.93 L 1280.64 518.82 L 1284.07 518.66 L 1287.51 518.45 L 1290.94 518.19 L 1294.37 517.89 L 1297.80 517.53 L 1301.24 517.13 L 1304.67 516.69 L 1308.10 516.19 L 1311.53 515.65 L 1314.97 515.06 L 1318.40 514.43" stroke="url(#flow3)" stroke-width="2.5"/>
<path d="M 563.20 537.60 L 566.63 537.60 L 570.07 537.59 L 573.50 537.58 L 576.93 537.56 L 580.36 537.54 L 583.80 537.51 L 587.23 537.47 L 590.66 537.43 L 594.09 537.39 L 597.53 537.33 L 600.96 537.28 L 604.39 537.21 L 607.83 537.15 L 611.26 537.07 L 614.69 537.00 L 618.12 536.91 L 621.56 536.82 L 624.99 536.73 L 628.42 536.63 L 631.85 536.53 L 635.29 536.42 L 638.72 536.31 L 642.15 536.20 L 645.59 536.08 L 649.02 535.96 L 652.45 535.83 L 655.88 535.71 L 659.32 535.58 L 662.75 535.45 L 666.18 535.31 L 669.61 535.18 L 673.05 535.04 L 676.48 534.90 L 679.91 534.77 L 683.35 534.63 L 686.78 534.49 L 690.21 534.36 L 693.64 534.22 L 697.08 534.09 L 700.51 533.96 L 703.94 533.83 L 707.37 533.71 L 710.81 533.59 L 714.24 533.47 L 717.67 533.35 L 721.11 533.24 L 724.54 533.14 L 727.97 533.04 L 731.40 532.94 L 734.84 532.86 L 738.27 532.78 L 741.70 532.70 L 745.13 532.64 L 748.57 532.58 L 752.00 532.53 L 755.43 532.49 L 758.87 532.46 L 762.30 532.43 L 765.73 532.42 L 769.16 532.42 L 772.60 532.43 L 776.03 532.44 L 779.46 532.47 L 782.89 532.52 L 786.33 532.57 L 789.76 532.64 L 793.19 532.71 L 796.63 532.80 L 800.06 532.91 L 803.49 533.02 L 806.92 533.16 L 810.36 533.30 L 813.79 533.46 L 817.22 533.63 L 820.65 533.81 L 824.09 534.01 L 827.52 534.23 L 830.95 534.46 L 834.39 534.70 L 837.82 534.96 L 841.25 535.23 L 844.68 535.52 L 848.12 535.82 L 851.55 536.14 L 854.98 536.47 L 858.41 536.81 L 861.85 537.17 L 865.28 537.55 L 868.71 537.94 L 872.15 538.34 L 875.58 538.76 L 879.01 539.19 L 882.44 539.63 L 885.88 540.09 L 889.31 540.56 L 892.74 541.04 L 896.17 541.54 L 899.61 542.05 L 903.04 542.57 L 906.47 543.10 L 909.91 543.64 L 913.34 544.20 L 916.77 544.76 L 920.20 545.34 L 923.64 545.92 L 927.07 546.51 L 930.50 547.11 L 933.93 547.72 L 937.37 548.34 L 940.80 548.96 L 944.23 549.60 L 947.67 550.23 L 951.10 550.87 L 954.53 551.52 L 957.96 552.17 L 961.40 552.83 L 964.83 553.49 L 968.26 554.15 L 971.69 554.81 L 975.13 555.47 L 978.56 556.13 L 981.99 556.80 L 985.43 557.46 L 988.86 558.12 L 992.29 558.78 L 995.72 559.43 L 999.16 560.08 L 1002.59 560.73 L 1006.02 561.37 L 1009.45 562.01 L 1012.89 562.64 L 1016.32 563.26 L 1019.75 563.87 L 1023.19 564.48 L 1026.62 565.07 L 1030.05 565.66 L 1033.48 566.23 L 1036.92 566.79 L 1040.35 567.34 L 1043.78 567.88 L 1047.21 568.40 L 1050.65 568.91 L 1054.08 569.41 L 1057.51 569.89 L 1060.95 570.35 L 1064.38 570.79 L 1067.81 571.22 L 1071.24 571.63 L 1074.68 572.02 L 1078.11 572.39 L 1081.54 572.74 L 1084.97 573.07 L 1088.41 573.37 L 1091.84 573.66 L 1095.27 573.92 L 1098.71 574.17 L 1102.14 574.38 L 1105.57 574.58 L 1109.00 574.75 L 1112.44 574.89 L 1115.87 575.02 L 1119.30 575.11 L 1122.73 575.18 L 1126.17 575.23 L 1129.60 575.24 L 1133.03 575.24 L 1136.47 575.20 L 1139.90 575.14 L 1143.33 575.05 L 1146.76 574.93 L 1150.20 574.79 L 1153.63 574.62 L 1157.06 574.42 L 1160.49 574.19 L 1163.93 573.93 L 1167.36 573.65 L 1170.79 573.34 L 1174.23 573.00 L 1177.66 572.64 L 1181.09 572.24 L 1184.52 571.82 L 1187.96 571.38 L 1191.39 570.90 L 1194.82 570.40 L 1198.25 569.87 L 1201.69 569.32 L 1205.12 568.74 L 1208.55 568.13 L 1211.99 567.50 L 1215.42 566.85 L 1218.85 566.17 L 1222.28 565.46 L 1225.72 564.74 L 1229.15 563.99 L 1232.58 563.21 L 1236.01 562.42 L 1239.45 561.61 L 1242.88 560.77 L 1246.31 559.92 L 1249.75 559.04 L 1253.18 558.15 L 1256.61 557.24 L 1260.04 556.31 L 1263.48 555.37 L 1266.91 554.41 L 1270.34 553.43 L 1273.77 552.44 L 1277.21 551.44 L 1280.64 550.43 L 1284.07 549.41 L 1287.51 548.37 L 1290.94 547.33 L 1294.37 546.27 L 1297.80 545.21 L 1301.24 544.14 L 1304.67 543.07 L 1308.10 541.99 L 1311.53 540.91 L 1314.97 539.83 L 1318.40 538.74" stroke="url(#flow4)" stroke-width="2.5"/>
</g>
<circle cx="1030.05" cy="138.15" r="7.0" fill="#ffb0cc" fill-opacity="0.588"/>
<circle cx="1167.36" cy="191.18" r="7.0" fill="#e2bdc8" fill-opacity="0.588"/>
<circle cx="892.74" cy="322.01" r="7.0" fill="#f0bc95" fill-opacity="0.588"/>
<circle cx="1074.68" cy="463.47" r="7.0" fill="#ffb0cc" fill-opacity="0.588"/>
<g fill="none" stroke="#f2dde2" stroke-width="26.0" stroke-linecap="round">
<path d="M 128.00 190.00 L 128.00 390.00"/>
<path d="M 128.00 190.00 L 248.00 190.00"/>
<path d="M 128.00 282.00 L 224.00 282.00"/>
<path d="M 300.00 190.00 L 300.00 390.00"/>
<path d="M 300.00 390.00 L 412.00 390.00"/>
<path d="M 464.00 190.00 L 464.00 318.00"/>
<path d="M 608.00 190.00 L 608.00 318.00"/>
<path d="M 608.00 318.00 A 72.00 72.00 0 0 1 464.00 318.00"/>
<path d="M 660.00 190.00 L 800.00 390.00"/>
<path d="M 800.00 190.00 L 660.00 390.00"/>
</g>
<path d="M 128.00 424.00 L 220.00 424.00" stroke="#ffb0cc" stroke-width="8" stroke-linecap="round"/>
<text x="128.00" y="477.20" fill="#d5c2c6" font-family="sans-serif" font-size="34" font-weight="700" letter-spacing="7">ADAPTIVE RUNTIME ENGINE</text>
</svg>
