<svg xmlns="http://www.w3.org/2000/svg" width="192" height="192" viewBox="0 0 192 192" role="img" aria-label="Flux donate icon">
<desc>Generated by scripts/render-icons.py. Edit that script, not this file.</desc>
<rect width="192" height="192" rx="44" fill="#33272a"/>
<path d="M 96.00 75.19 L 96.00 75.13 L 96.01 74.92 L 96.05 74.58 L 96.12 74.11 L 96.23 73.52 L 96.40 72.82 L 96.63 72.01 L 96.92 71.11 L 97.30 70.13 L 97.77 69.09 L 98.32 68.00 L 98.97 66.87 L 99.72 65.72 L 100.57 64.57 L 101.52 63.44 L 102.57 62.34 L 103.72 61.28 L 104.97 60.29 L 106.31 59.38 L 107.73 58.55 L 109.23 57.83 L 110.80 57.22 L 112.44 56.73 L 114.12 56.38 L 115.85 56.16 L 117.61 56.09 L 119.38 56.16 L 121.16 56.38 L 122.93 56.74 L 124.68 57.25 L 126.40 57.91 L 128.06 58.70 L 129.67 59.63 L 131.20 60.68 L 132.64 61.85 L 133.99 63.13 L 135.22 64.51 L 136.34 65.98 L 137.33 67.53 L 138.18 69.15 L 138.88 70.83 L 139.44 72.56 L 139.84 74.33 L 140.08 76.13 L 140.16 77.95 L 140.08 79.79 L 139.84 81.63 L 139.44 83.47 L 138.88 85.31 L 138.18 87.13 L 137.33 88.94 L 136.34 90.73 L 135.22 92.49 L 133.99 94.24 L 132.64 95.95 L 131.20 97.65 L 129.67 99.32 L 128.06 100.96 L 126.40 102.58 L 124.68 104.17 L 122.93 105.75 L 121.16 107.30 L 119.38 108.84 L 117.61 110.35 L 115.85 111.85 L 114.12 113.33 L 112.44 114.79 L 110.80 116.23 L 109.23 117.65 L 107.73 119.04 L 106.31 120.41 L 104.97 121.76 L 103.72 123.07 L 102.57 124.35 L 101.52 125.59 L 100.57 126.78 L 99.72 127.92 L 98.97 129.01 L 98.32 130.04 L 97.77 131.00 L 97.30 131.89 L 96.92 132.70 L 96.63 133.43 L 96.40 134.08 L 96.23 134.63 L 96.12 135.09 L 96.05 135.45 L 96.01 135.71 L 96.00 135.86 L 96.00 135.91 L 96.00 135.86 L 95.99 135.71 L 95.95 135.45 L 95.88 135.09 L 95.77 134.63 L 95.60 134.08 L 95.37 133.43 L 95.08 132.70 L 94.70 131.89 L 94.23 131.00 L 93.68 130.04 L 93.03 129.01 L 92.28 127.92 L 91.43 126.78 L 90.48 125.59 L 89.43 124.35 L 88.28 123.07 L 87.03 121.76 L 85.69 120.41 L 84.27 119.04 L 82.77 117.65 L 81.20 116.23 L 79.56 114.79 L 77.88 113.33 L 76.15 111.85 L 74.39 110.35 L 72.62 108.84 L 70.84 107.30 L 69.07 105.75 L 67.32 104.17 L 65.60 102.58 L 63.94 100.96 L 62.33 99.32 L 60.80 97.65 L 59.36 95.95 L 58.01 94.24 L 56.78 92.49 L 55.66 90.73 L 54.67 88.94 L 53.82 87.13 L 53.12 85.31 L 52.56 83.47 L 52.16 81.63 L 51.92 79.79 L 51.84 77.95 L 51.92 76.13 L 52.16 74.33 L 52.56 72.56 L 53.12 70.83 L 53.82 69.15 L 54.67 67.53 L 55.66 65.98 L 56.78 64.51 L 58.01 63.13 L 59.36 61.85 L 60.80 60.68 L 62.33 59.63 L 63.94 58.70 L 65.60 57.91 L 67.32 57.25 L 69.07 56.74 L 70.84 56.38 L 72.62 56.16 L 74.39 56.09 L 76.15 56.16 L 77.88 56.38 L 79.56 56.73 L 81.20 57.22 L 82.77 57.83 L 84.27 58.55 L 85.69 59.38 L 87.03 60.29 L 88.28 61.28 L 89.43 62.34 L 90.48 63.44 L 91.43 64.57 L 92.28 65.72 L 93.03 66.87 L 93.68 68.00 L 94.23 69.09 L 94.70 70.13 L 95.08 71.11 L 95.37 72.01 L 95.60 72.82 L 95.77 73.52 L 95.88 74.11 L 95.95 74.58 L 95.99 74.92 L 96.00 75.13 Z" fill="#f0bc95"/>
</svg>
